<svg width="19" height="22" viewBox="0 0 19 22" fill="none" xmlns="http://www.w3.org/2000/svg">
<path d="M18.3418 17.1449C18.0091 17.9135 17.6153 18.6211 17.159 19.2715C16.5371 20.1583 16.0278 20.7721 15.6354 21.113C15.027 21.6724 14.3752 21.959 13.6772 21.9753C13.1761 21.9753 12.5718 21.8327 11.8683 21.5434C11.1626 21.2555 10.514 21.113 9.92101 21.113C9.29905 21.113 8.63201 21.2555 7.91853 21.5434C7.20396 21.8327 6.62831 21.9834 6.18819 21.9984C5.51884 22.0269 4.85166 21.7322 4.18571 21.113C3.76066 20.7422 3.22901 20.1067 2.59212 19.2063C1.90878 18.2449 1.34698 17.13 0.906863 15.8589C0.435507 14.486 0.199219 13.1565 0.199219 11.8694C0.199219 10.3951 0.517801 9.12345 1.15592 8.05784C1.65742 7.20191 2.32459 6.52672 3.15962 6.03105C3.99464 5.53539 4.89688 5.2828 5.86852 5.26664C6.40017 5.26664 7.09736 5.43109 7.96375 5.75429C8.82769 6.07858 9.38243 6.24303 9.62564 6.24303C9.80748 6.24303 10.4237 6.05074 11.4684 5.66738C12.4564 5.31186 13.2902 5.16466 13.9732 5.22264C15.8241 5.37202 17.2147 6.10167 18.1395 7.41619C16.4841 8.4192 15.6653 9.82403 15.6816 11.6262C15.6965 13.03 16.2057 14.1981 17.2066 15.1256C17.6601 15.5561 18.1667 15.8888 18.7302 16.1251C18.608 16.4795 18.479 16.819 18.3418 17.1449ZM14.0968 0.440369C14.0968 1.54062 13.6948 2.56792 12.8936 3.51878C11.9267 4.64917 10.7572 5.30236 9.48903 5.19929C9.47287 5.06729 9.4635 4.92837 9.4635 4.78239C9.4635 3.72615 9.92331 2.59576 10.7399 1.67152C11.1475 1.20356 11.666 0.814453 12.2948 0.504058C12.9221 0.198295 13.5156 0.0292007 14.0737 0.000244141C14.09 0.147331 14.0968 0.294426 14.0968 0.440355V0.440369Z" fill="#555555"/>
</svg>
