<svg width="25" height="24" viewBox="0 0 25 24" fill="none" xmlns="http://www.w3.org/2000/svg">
<path d="M19 21C20.933 21 22.5 19.433 22.5 17.5C22.5 15.567 20.933 14 19 14C17.067 14 15.5 15.567 15.5 17.5C15.5 19.433 17.067 21 19 21Z" stroke="white" stroke-width="2" stroke-linecap="round" stroke-linejoin="round"/>
<path d="M6 21C7.933 21 9.5 19.433 9.5 17.5C9.5 15.567 7.933 14 6 14C4.067 14 2.5 15.567 2.5 17.5C2.5 19.433 4.067 21 6 21Z" stroke="white" stroke-width="2" stroke-linecap="round" stroke-linejoin="round"/>
<path d="M15.5 6C16.0523 6 16.5 5.55228 16.5 5C16.5 4.44772 16.0523 4 15.5 4C14.9477 4 14.5 4.44772 14.5 5C14.5 5.55228 14.9477 6 15.5 6Z" stroke="white" stroke-width="2" stroke-linecap="round" stroke-linejoin="round"/>
<path d="M12.5 17.5V14L9.5 11L13.5 8L15.5 11H17.5" stroke="white" stroke-width="2" stroke-linecap="round" stroke-linejoin="round"/>
</svg>
