<svg width="24" height="25" viewBox="0 0 24 25" fill="none" xmlns="http://www.w3.org/2000/svg">
<path fill-rule="evenodd" clip-rule="evenodd" d="M17.9987 20.1969C17.7303 20.2061 17.4627 20.1611 17.212 20.0647C16.9613 19.9683 16.7325 19.8225 16.5393 19.6358C16.3462 19.4492 16.1926 19.2255 16.0877 18.9782C15.9827 18.731 15.9287 18.4651 15.9287 18.1965C15.9287 17.9279 15.9827 17.662 16.0877 17.4147C16.1926 17.1675 16.3462 16.9438 16.5393 16.7572C16.7325 16.5705 16.9613 16.4246 17.212 16.3282C17.4627 16.2318 17.7303 16.1869 17.9987 16.1961C18.5174 16.2139 19.0089 16.4324 19.3696 16.8056C19.7302 17.1788 19.9318 17.6775 19.9318 18.1965C19.9318 18.7155 19.7302 19.2142 19.3696 19.5874C19.0089 19.9606 18.5174 20.1791 17.9987 20.1969ZM5.99873 14.1969C5.73027 14.2061 5.46271 14.1611 5.21199 14.0647C4.96126 13.9683 4.73251 13.8225 4.53935 13.6358C4.34619 13.4492 4.19258 13.2255 4.08766 12.9782C3.98275 12.731 3.92868 12.4651 3.92868 12.1965C3.92868 11.9279 3.98275 11.662 4.08766 11.4147C4.19258 11.1675 4.34619 10.9438 4.53935 10.7572C4.73251 10.5705 4.96126 10.4246 5.21199 10.3282C5.46271 10.2318 5.73027 10.1869 5.99873 10.1961C6.51741 10.2139 7.00892 10.4324 7.36957 10.8056C7.73022 11.1788 7.93181 11.6775 7.93181 12.1965C7.93181 12.7155 7.73022 13.2142 7.36957 13.5874C7.00892 13.9606 6.51741 14.1791 5.99873 14.1969ZM17.9987 4.19844C18.2672 4.18925 18.5347 4.23419 18.7855 4.33058C19.0362 4.42697 19.2649 4.57284 19.4581 4.7595C19.6513 4.94616 19.8049 5.1698 19.9098 5.41707C20.0147 5.66435 20.0688 5.93022 20.0688 6.19883C20.0688 6.46744 20.0147 6.73331 19.9098 6.98059C19.8049 7.22787 19.6513 7.4515 19.4581 7.63816C19.2649 7.82482 19.0362 7.97069 18.7855 8.06708C18.5347 8.16347 18.2672 8.20841 17.9987 8.19922C17.48 8.18146 16.9885 7.96293 16.6279 7.58973C16.2672 7.21652 16.0656 6.71782 16.0656 6.19883C16.0656 5.67984 16.2672 5.18114 16.6279 4.80793C16.9885 4.43473 17.48 4.2162 17.9987 4.19844ZM17.9987 14.1969C16.7706 14.1969 15.6854 14.7617 14.9519 15.6336L9.94326 12.7438C9.96669 12.5633 9.99951 12.3852 9.99951 12.1977C9.99951 12.0852 9.97607 11.9797 9.96669 11.8695L15.0808 8.91641C15.4521 9.3204 15.903 9.6431 16.4052 9.86415C16.9075 10.0852 17.45 10.1998 17.9987 10.2008C18.7899 10.2008 19.5633 9.9662 20.2212 9.52669C20.8791 9.08718 21.3919 8.46249 21.6947 7.73158C21.9976 7.00067 22.077 6.19636 21.9228 5.42035C21.7686 4.64434 21.3878 3.93146 20.8285 3.37185C20.2692 2.81224 19.5566 2.43102 18.7807 2.27638C18.0048 2.12174 17.2004 2.20064 16.4693 2.50309C15.7382 2.80554 15.1132 3.31797 14.6733 3.97558C14.2334 4.6332 13.9984 5.40648 13.9979 6.19766C13.9979 6.53047 14.0519 6.84922 14.1269 7.1586L9.30341 9.94766C8.9151 9.3776 8.386 8.91761 7.76747 8.61235C7.14895 8.30709 6.46201 8.16693 5.77333 8.20547C5.08466 8.24401 4.41765 8.45994 3.83704 8.83231C3.25644 9.20467 2.78196 9.72082 2.45968 10.3306C2.13739 10.9405 1.97825 11.6233 1.99768 12.3127C2.01712 13.0022 2.21448 13.675 2.57061 14.2657C2.92674 14.8564 3.42954 15.345 4.0302 15.684C4.63086 16.0231 5.30897 16.2011 5.99873 16.2008C7.29951 16.1984 8.44091 15.568 9.17216 14.607L14.0753 17.4383C13.9184 18.2473 14.0152 19.0851 14.3524 19.8371C14.6896 20.589 15.2508 21.2185 15.9593 21.6395C16.6678 22.0604 17.489 22.2523 18.3107 22.1889C19.1324 22.1255 19.9144 21.8099 20.55 21.2852C21.1855 20.7606 21.6435 20.0524 21.8613 19.2576C22.0792 18.4628 22.0463 17.6201 21.7671 16.8447C21.488 16.0693 20.9761 15.3991 20.3016 14.9255C19.6271 14.452 18.8228 14.1984 17.9987 14.1992V14.1969Z" fill="#6D737A"/>
</svg>
