<svg width="32" height="32" viewBox="0 0 32 32" fill="none" xmlns="http://www.w3.org/2000/svg">
<path d="M29.3327 8.00065V24.0007C29.3327 24.734 29.0714 25.362 28.5487 25.8847C28.026 26.4073 27.3985 26.6682 26.666 26.6673H5.33268C4.59935 26.6673 3.97135 26.406 3.44868 25.8833C2.92602 25.3607 2.66513 24.7331 2.66602 24.0007V8.00065C2.66602 7.26732 2.92735 6.63932 3.45002 6.11665C3.97268 5.59399 4.60024 5.3331 5.33268 5.33399H26.666C27.3994 5.33399 28.0274 5.59532 28.55 6.11799C29.0727 6.64065 29.3336 7.26821 29.3327 8.00065ZM5.33268 10.6673H26.666V8.00065H5.33268V10.6673ZM5.33268 16.0007V24.0007H26.666V16.0007H5.33268Z" fill="#555555"/>
</svg>
